<svg version="1" xmlns="http://www.w3.org/2000/svg" width="1333.333" height="1333.333" viewBox="0 0 1000.000000 1000.000000"><path d="M356 187.9c-6.9 2.1-12.1 6.5-15.6 13.1-1.8 3.3-1.9 7.8-2.5 75-.4 39.3-.9 73.1-1.2 75-.4 1.9-1.1 8-1.8 13.5-2.3 20.5-7.5 39.5-15.4 56.3-12.4 26-27.6 42.3-51.8 55.2-15.3 8.2-31.4 13.1-56.2 17.2-12.2 2-17.6 2.2-92.5 2.7-89.5.7-84.5.2-91.5 8.3-6.9 8.1-6.5.7-6.5 129.1 0 86 .3 117 1.2 119.9 1.5 5.1 8.2 12.6 13.3 14.9 3.8 1.8 9.7 1.9 122.6 1.9h118.5l5.1-2.5c5.3-2.7 9.4-7.1 11.8-12.8 1-2.5 1.4-17.6 1.8-73.7.5-71.3.8-76.6 4.7-100.5.6-3.9 2.5-12 4.2-18 7.2-26 15.8-42.1 31.5-58.6 23-24.1 54.9-37.1 101.9-41.3 13.5-1.3 31.6-1.6 85.4-1.6 49.9 0 69.3-.3 72.2-1.2 2.2-.6 6.2-3.1 8.8-5.5 8.6-7.8 8.1 1.9 7.8-131.9l-.3-117.9-2.2-4c-2.5-4.7-6.4-8.5-11.3-11.1-3.4-1.8-8.5-1.9-121.5-2.1-64.9-.1-119.1.2-120.5.6z"/><path d="M727.9 242c-8.7 1.5-16.3 8.6-18.8 17.6-.7 2.6-1.1 25.1-1.1 68.5 0 77.9-.9 90.5-8.1 119.1-9.9 39.5-34 70.4-66.4 85.4-9.1 4.2-26.4 10-35.5 11.9-22.6 4.7-23.7 4.8-107.5 5.4-76.9.6-80.2.7-84 2.6-2.1 1-5.6 3.6-7.7 5.7-7.2 7.2-6.9.6-6.6 131.4l.3 116.9 2.2 4.1c2.9 5.5 9.3 10.9 14.6 12.3 3.1.9 35.3 1.1 121.7.9 111.9-.3 117.7-.4 121.2-2.1 4.7-2.4 8.4-6.1 11.2-11.2 2.1-4 2.1-4.8 2.7-76 .5-58.5.9-74.4 2.2-84.7 9.4-72.4 41.1-111.7 102.5-127.3 25.2-6.3 45-7.5 129.2-7.5 59.4 0 63.8-.2 67.5-1.9 5.3-2.4 9.3-6.5 12.1-12.6l2.4-5v-235l-2.4-5c-2.8-5.9-6.6-9.7-12.1-12.2-3.8-1.7-10.5-1.8-119.5-1.9-63.5-.1-117.6.2-120.1.6z"/></svg>