<svg aria-hidden="true" style="position: absolute; width: 0; height: 0; overflow: hidden;" version="1.1" xmlns="http://www.w3.org/2000/svg" xmlns:xlink="http://www.w3.org/1999/xlink">
<defs>
    <symbol id="icon--arrowdown" viewBox="0 0 32 19" fill-rule="evenodd" stroke-linejoin="round" stroke-miterlimit="1.414" clip-rule="evenodd"><path d="M16 12.205L27.435.781A2.869 2.869 0 0 1 29.239 0h.168c1.711.105 2.717 1.441 2.581 2.907-.042.447.072.738-.769 1.632l-13.36 13.348c-.613.575-1.235.819-1.859.813-.624.006-1.246-.238-1.859-.813L.781 4.539C-.06 3.645.054 3.354.012 2.907-.124 1.441.882.105 2.593 0h.168a2.869 2.869 0 0 1 1.804.781L16 12.205z"/></symbol>

    <symbol id="logo" viewBox="0 0 100 34.4">
        <style type="text/css">
            .logo-part-dark-blue{fill: #222426;}
            .logo-part-blue{fill: #139FDA;}
        </style>
        <polygon id="XMLID_4_" style="fill: #222426" class="logo-part-dark-blue" points="31.1,17 19.4,34.3 12.3,34.2 22.3,19.6 0,19.6 3.3,14.3 22.4,14.3 13.1,0 19.8,0 "/>
        <g>
            <polygon id="XMLID_3_" class="logo-part-blue" style="fill: #139FDA" points="30.9,6.7 34.8,12.1 42.7,0.1 35.7,0.1 	"/>
            <polygon id="XMLID_2_" class="logo-part-blue" style="fill: #139FDA" points="34.6,22.3 31,27.4 35.7,34.3 42.4,34.3 	"/>
            <path id="XMLID_1_" class="logo-part-blue" style="fill: #139FDA" d="M64.1,27.2h-6.4c-2.1,0-3.9-1.7-3.9-3.9V11.1c0-2.1,1.7-3.9,3.9-3.9h6.7L70,0.1H57.7
                c-6.1,0-11,4.9-11,11v12.3c0,6.1,4.9,11,11,11h12.1L64.1,27.2z"/>
            <path class="logo-part-blue" style="fill: #139FDA" d="M100,11.1v12.3c0,6.1-4.9,11-11,11H76.9l-0.1-17l5.7,6.6l0.1,3.2H89c2.1,0,3.9-1.7,3.9-3.9V11.1
                c0-2.1-1.7-3.9-3.9-3.9h-6.7l-5.6-7.1H89C95.1,0.1,100,5,100,11.1z"/>
        </g>
    </symbol>
</defs>


</svg>